<svg width="24" height="24" viewBox="0 0 24 24" fill="none" xmlns="http://www.w3.org/2000/svg">
<path d="M7.69974 4.36802L7.79234 3.37232H7.79234L7.69974 4.36802ZM9.64412 3.56263L8.87457 2.92404V2.92404L9.64412 3.56263ZM4.27807 6.73249L3.28236 6.8251L4.27807 6.73249ZM6.73249 4.27807L6.63989 5.27377H6.63989L6.73249 4.27807ZM3.56263 9.64412L2.92404 8.87457H2.92404L3.56263 9.64412ZM4.36802 7.69974L5.36373 7.60714L4.36802 7.69974ZM2.81508 13.7355L2.17649 14.5051H2.17649L2.81508 13.7355ZM2.81508 10.2645L3.45367 11.034H3.45367L2.81508 10.2645ZM4.36802 16.3003L3.37232 16.2077L4.36802 16.3003ZM3.56263 14.3559L4.20122 13.5863H4.20122L3.56263 14.3559ZM6.73249 19.7219L6.63989 18.7262H6.63989L6.73249 19.7219ZM4.27807 17.2675L5.27377 17.3601L4.27807 17.2675ZM9.64412 20.4374L10.4137 19.7988L9.64412 20.4374ZM7.69974 19.632L7.79234 20.6277H7.79234L7.69974 19.632ZM13.7355 21.1849L14.5051 21.8235L14.5051 21.8235L13.7355 21.1849ZM10.2645 21.1849L9.49491 21.8235H9.49491L10.2645 21.1849ZM16.3003 19.632L16.2077 20.6277H16.2077L16.3003 19.632ZM14.3559 20.4374L13.5863 19.7988L13.5863 19.7988L14.3559 20.4374ZM19.7219 17.2675L18.7262 17.3601V17.3601L19.7219 17.2675ZM17.2675 19.7219L17.3601 18.7262H17.3601L17.2675 19.7219ZM20.4374 14.3559L19.7988 13.5863L20.4374 14.3559ZM19.632 16.3003L20.6277 16.2077V16.2077L19.632 16.3003ZM21.1849 10.2645L21.8235 9.49491V9.49491L21.1849 10.2645ZM21.1849 13.7355L21.8235 14.5051L21.1849 13.7355ZM19.632 7.69974L20.6277 7.79234V7.79234L19.632 7.69974ZM20.4374 9.64412L19.7988 10.4137L20.4374 9.64412ZM17.2675 4.27807L17.1749 3.28236L17.2675 4.27807ZM19.7219 6.73249L18.7262 6.63989V6.63989L19.7219 6.73249ZM14.3559 3.56263L15.1254 2.92404V2.92404L14.3559 3.56263ZM16.3003 4.36802L16.3929 5.36373L16.3003 4.36802ZM13.7355 2.81508L12.966 3.45367V3.45367L13.7355 2.81508ZM10.2645 2.81508L11.034 3.45367V3.45367L10.2645 2.81508ZM12.966 3.45367L13.5863 4.20122L15.1254 2.92404L14.5051 2.17649L12.966 3.45367ZM16.3929 5.36373L17.3601 5.27377L17.1749 3.28236L16.2077 3.37232L16.3929 5.36373ZM18.7262 6.63989L18.6363 7.60714L20.6277 7.79234L20.7176 6.8251L18.7262 6.63989ZM19.7988 10.4137L20.5463 11.034L21.8235 9.49491L21.076 8.87457L19.7988 10.4137ZM20.5463 12.966L19.7988 13.5863L21.076 15.1254L21.8235 14.5051L20.5463 12.966ZM18.6363 16.3929L18.7262 17.3601L20.7176 17.1749L20.6277 16.2077L18.6363 16.3929ZM17.3601 18.7262L16.3929 18.6363L16.2077 20.6277L17.1749 20.7176L17.3601 18.7262ZM13.5863 19.7988L12.966 20.5463L14.5051 21.8235L15.1254 21.076L13.5863 19.7988ZM11.034 20.5463L10.4137 19.7988L8.87457 21.076L9.49491 21.8235L11.034 20.5463ZM7.60714 18.6363L6.63989 18.7262L6.8251 20.7176L7.79234 20.6277L7.60714 18.6363ZM5.27377 17.3601L5.36373 16.3929L3.37232 16.2077L3.28236 17.1749L5.27377 17.3601ZM4.20122 13.5863L3.45367 12.966L2.17649 14.5051L2.92404 15.1254L4.20122 13.5863ZM3.45367 11.034L4.20122 10.4137L2.92404 8.87457L2.17649 9.49491L3.45367 11.034ZM5.36373 7.60714L5.27377 6.63989L3.28236 6.8251L3.37232 7.79234L5.36373 7.60714ZM6.63989 5.27377L7.60714 5.36373L7.79234 3.37232L6.8251 3.28236L6.63989 5.27377ZM10.4137 4.20122L11.034 3.45367L9.49491 2.17649L8.87457 2.92404L10.4137 4.20122ZM7.60714 5.36373C8.67719 5.46324 9.7274 5.02823 10.4137 4.20122L8.87457 2.92404C8.60994 3.24295 8.20496 3.41069 7.79234 3.37232L7.60714 5.36373ZM5.27377 6.63989C5.20098 5.85723 5.85723 5.20098 6.63989 5.27377L6.8251 3.28236C4.79544 3.0936 3.0936 4.79544 3.28236 6.8251L5.27377 6.63989ZM4.20122 10.4137C5.02823 9.7274 5.46324 8.67718 5.36373 7.60714L3.37232 7.79234C3.41069 8.20496 3.24295 8.60994 2.92404 8.87457L4.20122 10.4137ZM3.45367 12.966C2.84878 12.464 2.84878 11.536 3.45367 11.034L2.17649 9.49491C0.607836 10.7966 0.607836 13.2034 2.17649 14.5051L3.45367 12.966ZM5.36373 16.3929C5.46324 15.3228 5.02823 14.2726 4.20122 13.5863L2.92404 15.1254C3.24295 15.3901 3.41069 15.795 3.37232 16.2077L5.36373 16.3929ZM6.63989 18.7262C5.85723 18.799 5.20098 18.1428 5.27377 17.3601L3.28236 17.1749C3.0936 19.2046 4.79544 20.9064 6.8251 20.7176L6.63989 18.7262ZM10.4137 19.7988C9.7274 18.9718 8.67718 18.5368 7.60714 18.6363L7.79234 20.6277C8.20496 20.5893 8.60994 20.7571 8.87457 21.076L10.4137 19.7988ZM12.966 20.5463C12.464 21.1512 11.536 21.1512 11.034 20.5463L9.49491 21.8235C10.7966 23.3922 13.2034 23.3922 14.5051 21.8235L12.966 20.5463ZM16.3929 18.6363C15.3228 18.5368 14.2726 18.9718 13.5863 19.7988L15.1254 21.076C15.3901 20.7571 15.795 20.5893 16.2077 20.6277L16.3929 18.6363ZM18.7262 17.3601C18.799 18.1428 18.1428 18.799 17.3601 18.7262L17.1749 20.7176C19.2046 20.9064 20.9064 19.2046 20.7176 17.1749L18.7262 17.3601ZM19.7988 13.5863C18.9718 14.2726 18.5368 15.3228 18.6363 16.3929L20.6277 16.2077C20.5893 15.795 20.7571 15.3901 21.076 15.1254L19.7988 13.5863ZM20.5463 11.034C21.1512 11.536 21.1512 12.464 20.5463 12.966L21.8235 14.5051C23.3922 13.2034 23.3922 10.7966 21.8235 9.49491L20.5463 11.034ZM18.6363 7.60714C18.5368 8.67719 18.9718 9.7274 19.7988 10.4137L21.076 8.87457C20.7571 8.60994 20.5893 8.20496 20.6277 7.79234L18.6363 7.60714ZM17.3601 5.27377C18.1428 5.20098 18.799 5.85723 18.7262 6.63989L20.7176 6.8251C20.9064 4.79544 19.2046 3.0936 17.1749 3.28236L17.3601 5.27377ZM13.5863 4.20122C14.2726 5.02823 15.3228 5.46324 16.3929 5.36373L16.2077 3.37232C15.795 3.41069 15.3901 3.24295 15.1254 2.92404L13.5863 4.20122ZM14.5051 2.17649C13.2034 0.607836 10.7966 0.607836 9.49491 2.17649L11.034 3.45367C11.536 2.84878 12.464 2.84878 12.966 3.45367L14.5051 2.17649ZM14 12C14 13.1046 13.1046 14 12 14V16C14.2091 16 16 14.2091 16 12H14ZM12 14C10.8954 14 10 13.1046 10 12H8C8 14.2091 9.79086 16 12 16V14ZM10 12C10 10.8954 10.8954 10 12 10V8C9.79086 8 8 9.79086 8 12H10ZM12 10C13.1046 10 14 10.8954 14 12H16C16 9.79086 14.2091 8 12 8V10Z" fill="currentColor"/>
</svg>
